<svg height='300px' width='300px'  fill="#ffffff" xmlns="http://www.w3.org/2000/svg" xmlns:xlink="http://www.w3.org/1999/xlink" version="1.1" x="0px" y="0px" viewBox="0 0 100 100" enable-background="new 0 0 100 100" xml:space="preserve"><path d="M93.6,44c-1.3-2.9-4-2.8-6.8-2.8c-5.2,0-10.4-0.1-15.7-0.1C50.2,41,29.4,40.9,8.5,40.7c-2.5,0-3.1,3.1-1.6,4.4  c-0.5,4.9-2.3,13,2.6,15.2c3.4,1.5,8.8,0.4,12.4,0.4c5.3,0,10.6,0,15.8,0c9.9,0,19.8,0,29.7,0c5.3,0,10.6,0,15.8,0  c2.7,0,7.4,1,9.6-1.2c1.7-1.7,1.2-4.5,1.2-6.6C94,50.3,94.7,46.5,93.6,44z M87.2,55.8c-2,0-4,0-5.9,0c-4,0-7.9,0-11.9,0  c-7.9,0-15.8,0-23.7,0c-7.9,0-15.8,0-23.7,0c-1.4,0-10.4,0.7-10.4-0.8c0-3.1,0.2-6.1,0.4-9.2c14.5,0.1,29.1,0.2,43.6,0.3  c7.8,0,15.7,0.1,23.5,0.1c0.9,0,10-0.1,10.1,0.2c0.2,2.7,0,5.4,0,8.1C89,56.6,89.8,55.8,87.2,55.8z"></path><path d="M12.7,34.2c11.5-0.2,22.9-0.3,34.4-0.5c11.5-0.2,23-0.3,34.5-0.5c2.7,0,8.4,1,10.2-2.1c2.2-3.7,1.9-10.2,2.5-14.5  c0.2-1.5-0.6-3.2-2.4-3.2c-27.6,1-55.2,1.3-82.8,0.7c-2.4,0-3,2.7-1.9,4.1C7.1,18.6,7.1,18.8,7,19c-0.5,3.7-2.1,8.8-1.1,12.5  C6.7,34.4,10.4,34.2,12.7,34.2z M12,19.3c25.7,0.5,51.3,0.2,77-0.7c-0.3,2.4-0.7,4.9-1,7.3c-0.3,2.4-0.1,2.1-2.6,2.2  c-2.5,0-5,0.1-7.6,0.1c-8.9,0.1-17.9,0.3-26.8,0.4C42,28.8,33,28.9,24,29c-4.4,0.1-8.8,0.1-13.2,0.2C10.8,29.2,11.8,21.2,12,19.3z"></path><path d="M88.2,66.6c-8.7-0.2-17.4-0.4-26.1-0.4C44.4,66,26.7,66,9,66.2c-1,0-2.2,0.7-2.4,1.8c-0.8,4.7-1.1,9.3-0.9,14.1  c0,0.3,0.1,0.6,0.2,0.9c-0.6,1.5,0.2,3.5,2.2,3.5c17.1-0.3,34.2-0.6,51.3-0.9c8.7-0.2,17.4-0.3,26.2-0.5c7.4-0.1,8.9-3.6,8.7-10.5  C94.2,69.4,94,66.7,88.2,66.6z M85.7,80.1c-3.4,0.1-6.8,0.1-10.2,0.2c-7.7,0.1-15.4,0.3-23.2,0.4c-13.8,0.2-27.7,0.5-41.5,0.7  c-0.2-3.5,0-6.8,0.4-10.2C24.5,71,37.9,71,51.3,71.1c7.2,0,14.3,0.1,21.5,0.2c3.5,0.1,6.9,0.1,10.4,0.2c1.7,0,3.4,0.1,5.1,0.1  c0.4,0.1,0.8,0.2,1,0.2c0,0.6,0,1.2,0,1.8C89.4,77.2,90.3,80,85.7,80.1z"></path></svg>