<?xml version="1.0" encoding="utf-8"?>
<!-- Designed by Vexels.com - 2016 All Rights Reserved - https://vexels.com/terms-and-conditions/  -->

<svg version="1.1" id="Capa_1" xmlns="http://www.w3.org/2000/svg" xmlns:xlink="http://www.w3.org/1999/xlink" x="0px" y="0px"
	 width="1200px" height="1200px" viewBox="0 0 1200 1200" enable-background="new 0 0 1200 1200" xml:space="preserve">
<g id="VEXELS">
</g>
<g>
	<g id="BACKGROUND">
		<g>
			<circle fill="#65A2D9" cx="599.999" cy="600" r="550"/>
			<g>
				<path fill="#FFFFFF" d="M919.679,401.937c-15.746,19.688-34.016,37.063-54.512,51.853l-3.088,2.237l0.18,3.829
					c0.25,6.101,0.387,12.161,0.387,17.979c0,194.148-147.75,394.961-394.958,394.961c-65.722,0-129.882-16.277-187.376-47.346
					c67.527,0.99,131.402-20.506,184.318-61.992l15.713-12.307l-19.93-0.357c-53.594-0.99-100.974-33.59-121.366-82.283
					c18.55,2.023,37.166,0.496,54.898-4.33l28.974-7.91l-29.474-5.889c-59.124-11.883-102.892-62.248-107.292-121.725
					c17.699,7.982,36.956,12.488,56.36,13.092l24.753,0.783l-20.607-13.766c-37.383-25-59.728-66.744-59.728-111.721
					c0-20.32,4.612-40.323,13.37-58.411c72.918,84.872,177.869,136.474,289.588,142.078l9.4,0.495l-2.126-9.183
					c-2.308-9.896-3.479-20.183-3.479-30.578c0-74.018,60.224-134.241,134.245-134.241c36.959,0,72.664,15.463,97.965,42.383
					l2.686,2.875l3.865-0.742c25.928-5.107,50.898-13.691,74.414-25.535c-11.35,23.229-29.295,42.843-51.85,56.389l-28.449,17.059
					l32.953-3.938C880.097,413.217,900.246,408.601,919.679,401.937z"/>
			</g>
			<path opacity="0.2" enable-background="new    " d="M1150,599.98c0,302.006-243.309,547.092-544.615,549.98h-0.039
				l-323.82-323.863c57.199,30.668,120.896,46.676,186.183,46.676c47.938,0,92.175-7.557,132.272-21.207
				c166.684-56.469,262.676-217.26,262.676-373.75c0-5.811-0.16-11.859-0.406-17.955l-0.16-3.861l3.094-2.229
				c20.471-14.791,38.754-32.137,54.516-51.844c-19.457,6.664-39.602,11.295-60.164,13.773l-32.943,3.943l28.439-17.064
				c21.85-13.166,39.402-32.012,50.781-54.277l244.158,244.156C1150,594.984,1150,597.462,1150,599.98z"/>
			<g>
				<path opacity="0.1" enable-background="new    " d="M919.699,401.933c-15.766,19.701-34.045,37.047-54.521,51.842l-3.092,2.23
					l0.164,3.86c0.242,6.091,0.406,12.145,0.406,17.954c0,156.486-95.998,317.283-262.682,373.752V420.823
					c17.266-54.231,68.131-93.597,127.967-93.597c36.969,0,72.674,15.438,97.945,42.367l2.725,2.885l3.855-0.771
					c25.145-4.913,49.4-13.161,72.234-24.497l1.098,1.098c-11.375,22.264-28.928,41.11-50.787,54.277l-28.439,17.063l32.953-3.942
					C880.087,413.227,900.242,408.595,919.699,401.933z"/>
				<path fill="#5FA9DD" d="M906.857,346.201c-0.367,0.689-0.688,1.421-1.055,2.111l-1.102-1.096
					C905.435,346.928,906.13,346.564,906.857,346.201z"/>
			</g>
		</g>
	</g>
</g>
</svg>
