<?xml version="1.0" encoding="utf-8"?>
<!-- Designed by Vexels.com - 2016 All Rights Reserved - https://vexels.com/terms-and-conditions/  -->

<svg version="1.1" id="Capa_1" xmlns="http://www.w3.org/2000/svg" xmlns:xlink="http://www.w3.org/1999/xlink" x="0px" y="0px"
	 width="1200px" height="1200px" viewBox="0 0 1200 1200" enable-background="new 0 0 1200 1200" xml:space="preserve">
<g id="VEXELS">
</g>
<g>
	<g id="BACKGROUND">
		<g>
			<path fill="#C02127" d="M600.023,50C296.228,50,50,296.228,50,600.023C50,903.779,296.228,1150,600.023,1150
				c29.375,0,58.221-2.309,86.332-6.74c235.006-37.049,420.545-222.912,457.107-458.084c4.305-27.748,6.537-56.184,6.537-85.152
				C1150,296.228,903.773,50,600.023,50z M900.078,721.984c-2.111,18.641-7.475,35.301-16.008,49.598
				c-10.32,17.307-26.643,27.99-47.246,30.957c-17.953,2.561-36.439,4.184-54.961,4.75c-44.441,1.502-88.889,2.604-131.906,3.656
				c-15.48,0.406-30.764,0.773-45.748,1.141L600.023,812V654.58l115.336-61.508l-115.336-61.544V388.083h0.164
				c1.34-0.044,2.645-0.082,4.021-0.123c16.09,0.405,32.504,0.812,49.164,1.257c41.881,1.014,85.232,2.113,128.496,3.533
				c18.563,0.609,37.049,2.235,54.965,4.755c13.361,1.909,24.941,7.11,34.199,15.235l5.818,5.807
				c2.676,3.004,5.068,6.338,7.229,9.91c8.533,14.3,13.896,30.957,16.002,49.601c4.305,38.755,6.291,78.61,6.176,122.002
				C906.373,643.371,904.382,683.261,900.078,721.984z"/>
			<g>
				<g>
					<g>
						<path fill="#FFFFFF" d="M900.078,478.067c-2.111-18.648-7.475-35.301-16.008-49.601c-2.154-3.57-4.553-6.906-7.229-9.91
							c-1.783-2.072-3.74-4.021-5.809-5.808c-9.266-8.124-20.844-13.325-34.209-15.234c-17.916-2.521-36.396-4.146-54.961-4.755
							c-43.264-1.42-86.609-2.52-128.5-3.534c-16.65-0.444-33.068-0.851-49.158-1.256c-1.373,0.041-2.678,0.079-4.022,0.123h-0.164
							h-0.203c-1.341-0.044-2.677-0.082-4.022-0.123c-16.09,0.405-32.496,0.812-49.115,1.256
							c-41.932,1.015-85.234,2.114-128.541,3.534c-18.564,0.609-37.094,2.234-54.964,4.755c-20.598,2.962-36.97,13.69-47.29,30.952
							c-8.492,14.3-13.895,30.957-15.967,49.601c-4.306,38.796-6.34,78.694-6.176,121.956c-0.164,43.309,1.87,83.162,6.176,121.961
							c2.067,18.641,7.475,35.301,15.967,49.598c0.646,1.135,1.384,2.236,2.072,3.291c0.039,0.037,0.039,0.086,0.08,0.125
							c4.674,6.861,10.359,12.553,16.979,16.979c0.046,0.039,0.084,0.039,0.125,0.078c8.045,5.449,17.465,8.938,28.034,10.484
							c17.955,2.561,36.438,4.184,54.964,4.75c44.445,1.502,88.931,2.604,131.95,3.656c15.438,0.406,30.71,0.773,45.701,1.141
							l4.144-0.086h0.082l4.188,0.086c14.982-0.367,30.266-0.734,45.746-1.141c43.018-1.053,87.465-2.154,131.902-3.656
							c18.525-0.566,37.012-2.189,54.967-4.75c20.598-2.967,36.924-13.65,47.244-30.957c8.537-14.297,13.9-30.957,16.008-49.598
							c4.305-38.723,6.295-78.613,6.174-121.916C906.373,556.677,904.382,516.822,900.078,478.067z M600.023,654.58l-69.836,37.254
							V494.275l69.836,37.253l115.336,61.544L600.023,654.58z"/>
						<polygon fill="#C02127" points="715.355,593.078 600.023,654.58 530.187,691.833 530.187,494.275 600.023,531.533 						"/>
					</g>
				</g>
			</g>
			<line fill="none" x1="600.023" y1="654.58" x2="600.023" y2="531.533"/>
			<path opacity="0.2" enable-background="new    " d="M876.841,418.552c2.676,3.002,5.074,6.336,7.229,9.909
				c8.537,14.3,13.9,30.957,16.008,49.601c4.305,38.756,6.295,78.61,6.174,122.002c0.121,43.303-1.869,83.197-6.174,121.91
				c-2.111,18.65-7.475,35.301-16.008,49.602c-10.32,17.309-26.643,27.996-47.246,30.957c-17.953,2.557-36.439,4.189-54.961,4.75
				c-44.441,1.508-88.889,2.6-131.906,3.658c-15.48,0.406-30.764,0.768-45.748,1.135l-4.186-0.082h-0.082l-4.144,0.082
				c-14.991-0.367-30.264-0.729-45.701-1.135c-43.02-1.059-87.511-2.15-131.95-3.658c-18.525-0.57-37.004-2.193-54.964-4.75
				c-10.564-1.541-19.989-5.039-28.034-10.484l264.875,264.877l86.332,86.33c235.006-37.051,420.545-222.908,457.107-458.09
				L876.841,418.552z"/>
			<path opacity="0.1" enable-background="new    " d="M906.251,600.068c0.121,43.303-1.869,83.193-6.174,121.916
				c-2.111,18.641-7.475,35.301-16.008,49.598c-10.32,17.307-26.643,27.99-47.246,30.957c-17.953,2.561-36.439,4.184-54.961,4.75
				c-44.441,1.502-88.889,2.604-131.906,3.656c-15.48,0.406-30.764,0.773-45.748,1.141L600.023,812V654.58l115.336-61.508
				l-115.336-61.544V388.083h0.164c1.34-0.044,2.645-0.082,4.021-0.123c16.09,0.405,32.504,0.812,49.164,1.257
				c41.881,1.014,85.232,2.113,128.496,3.533c18.563,0.609,37.049,2.235,54.965,4.755c13.361,1.909,24.941,7.11,34.199,15.235
				l5.818,5.807c2.676,3.004,5.068,6.338,7.229,9.91c8.533,14.3,13.896,30.957,16.002,49.601
				C904.382,516.822,906.373,556.677,906.251,600.068z"/>
		</g>
	</g>
</g>
</svg>
